<svg aria-hidden="true" style="" version="1.1" xmlns="http://www.w3.org/2000/svg" xmlns:xlink="http://www.w3.org/1999/xlink">
<defs>
<symbol id="icon-linkedin" viewBox="0 0 32 32">
<path d="M0 2.292c0-1.266 1.052-2.292 2.35-2.292h27.3c1.298 0 2.35 1.026 2.35 2.292v27.416c0 1.266-1.052 2.292-2.35 2.292h-27.3c-1.298 0-2.35-1.026-2.35-2.292v-27.416zM9.886 26.788v-14.45h-4.802v14.45h4.802zM7.486 10.364c1.674 0 2.716-1.108 2.716-2.496-0.030-1.418-1.040-2.496-2.684-2.496s-2.718 1.080-2.718 2.496c0 1.388 1.042 2.496 2.654 2.496h0.032zM17.302 26.788v-8.070c0-0.432 0.032-0.864 0.16-1.172 0.346-0.862 1.136-1.756 2.464-1.756 1.738 0 2.432 1.324 2.432 3.268v7.73h4.802v-8.288c0-4.44-2.368-6.504-5.528-6.504-2.548 0-3.69 1.4-4.33 2.386v0.050h-0.032c0.037-0.060 0.047-0.076 0.058-0.093l-0.026 0.043v-2.044h-4.8c0.060 1.356 0 14.45 0 14.45h4.8z"></path>
</symbol>
<symbol id="icon-twitter" viewBox="0 0 32 32">
<path d="M10.052 30c12.076 0 18.682-10.006 18.682-18.668 0-0.28 0-0.564-0.012-0.844 1.291-0.942 2.378-2.069 3.248-3.357l0.030-0.047c-1.1 0.499-2.376 0.863-3.713 1.029l-0.065 0.007c1.36-0.823 2.383-2.085 2.881-3.587l0.013-0.047c-1.201 0.724-2.6 1.275-4.091 1.572l-0.083 0.014c-1.202-1.278-2.903-2.073-4.791-2.073-3.63 0-6.572 2.942-6.572 6.572 0 0.528 0.062 1.042 0.18 1.534l-0.009-0.045c-5.469-0.283-10.281-2.88-13.508-6.825l-0.026-0.033c-0.557 0.945-0.885 2.082-0.885 3.296 0 2.27 1.149 4.271 2.898 5.453l0.023 0.015c-1.096-0.038-2.114-0.336-3.006-0.833l0.034 0.017v0.090c0.004 3.164 2.242 5.805 5.221 6.428l0.043 0.008c-0.51 0.146-1.096 0.23-1.701 0.23-0.010 0-0.020-0-0.030-0h0.002c-0.006 0-0.013 0-0.020 0-0.427 0-0.845-0.041-1.249-0.121l0.041 0.007c0.864 2.628 3.274 4.502 6.128 4.554l0.006 0c-2.217 1.754-5.054 2.814-8.139 2.814-0.008 0-0.015 0-0.023-0h0.001c-0.016 0-0.035 0-0.053 0-0.531 0-1.054-0.033-1.568-0.096l0.061 0.006c2.843 1.838 6.317 2.93 10.046 2.93 0.002 0 0.004 0 0.006 0h-0z"></path>
</symbol>
<symbol id="icon-instagram" viewBox="0 0 32 32">
<path d="M16 0c-4.342 0-4.888 0.020-6.594 0.096-1.706 0.080-2.868 0.348-3.886 0.744-1.109 0.424-2.055 1.052-2.833 1.845l-0.001 0.001c-0.793 0.78-1.421 1.725-1.828 2.78l-0.018 0.054c-0.396 1.016-0.666 2.18-0.744 3.88-0.076 1.71-0.096 2.254-0.096 6.602 0 4.344 0.020 4.888 0.096 6.594 0.080 1.704 0.348 2.866 0.744 3.884 0.41 1.052 0.956 1.944 1.846 2.834 0.888 0.89 1.78 1.438 2.832 1.846 1.020 0.396 2.18 0.666 3.884 0.744 1.708 0.076 2.252 0.096 6.598 0.096s4.888-0.020 6.596-0.096c1.702-0.080 2.868-0.348 3.886-0.744 1.108-0.424 2.053-1.052 2.831-1.845l0.001-0.001c0.89-0.89 1.436-1.782 1.846-2.834 0.394-1.018 0.664-2.18 0.744-3.884 0.076-1.706 0.096-2.25 0.096-6.596s-0.020-4.89-0.096-6.598c-0.080-1.702-0.35-2.866-0.744-3.882-0.425-1.109-1.053-2.054-1.845-2.833l-0.001-0.001c-0.779-0.794-1.725-1.422-2.78-1.828l-0.054-0.018c-1.020-0.396-2.184-0.666-3.886-0.744-1.708-0.076-2.25-0.096-6.598-0.096h0.006zM14.566 2.884h1.436c4.272 0 4.778 0.014 6.464 0.092 1.56 0.070 2.408 0.332 2.972 0.55 0.746 0.29 1.28 0.638 1.84 1.198s0.906 1.092 1.196 1.84c0.22 0.562 0.48 1.41 0.55 2.97 0.078 1.686 0.094 2.192 0.094 6.462s-0.016 4.778-0.094 6.464c-0.070 1.56-0.332 2.406-0.55 2.97-0.271 0.721-0.679 1.335-1.197 1.837l-0.001 0.001c-0.56 0.56-1.092 0.906-1.84 1.196-0.56 0.22-1.408 0.48-2.97 0.552-1.686 0.076-2.192 0.094-6.464 0.094s-4.78-0.018-6.466-0.094c-1.56-0.072-2.406-0.332-2.97-0.552-0.721-0.27-1.336-0.678-1.839-1.195l-0.001-0.001c-0.519-0.504-0.928-1.118-1.189-1.806l-0.011-0.034c-0.218-0.562-0.48-1.41-0.55-2.97-0.076-1.686-0.092-2.192-0.092-6.466 0-4.272 0.016-4.776 0.092-6.462 0.072-1.56 0.332-2.408 0.552-2.972 0.29-0.746 0.638-1.28 1.198-1.84s1.092-0.906 1.84-1.196c0.564-0.22 1.41-0.48 2.97-0.552 1.476-0.068 2.048-0.088 5.030-0.090v0.004zM24.542 5.54c-1.060 0-1.92 0.86-1.92 1.92s0.86 1.92 1.92 1.92v0c1.060 0 1.92-0.86 1.92-1.92s-0.86-1.92-1.92-1.92v0zM16.002 7.784c-0.038-0.001-0.083-0.001-0.128-0.001-4.539 0-8.218 3.679-8.218 8.218s3.679 8.218 8.218 8.218c0.045 0 0.090-0 0.135-0.001l-0.007 0c4.483-0.072 8.090-3.723 8.090-8.217s-3.607-8.145-8.083-8.217l-0.007-0zM16.002 10.666c2.946 0 5.334 2.388 5.334 5.334s-2.388 5.334-5.334 5.334v0c-2.946 0-5.334-2.388-5.334-5.334s2.388-5.334 5.334-5.334v0z"></path>
</symbol>
<symbol id="icon-facebook-f" viewBox="0 0 20 32">
<path d="M17.446 18l0.889-5.791h-5.557v-3.758c0-1.584 0.776-3.129 3.265-3.129h2.526v-4.931s-2.293-0.391-4.484-0.391c-4.576 0-7.567 2.774-7.567 7.795v4.414h-5.087v5.791h5.087v14h6.261v-14z"></path>
</symbol>
<symbol id="icon-checkmark" viewBox="0 0 15 15">
<path d="M27 4l-15 15-7-7-5 5 12 12 20-20z"></path>
</symbol>
</defs>
</svg>
